<?xml version="1.0" encoding="utf-8"?>
<!-- Generator: Adobe Illustrator 19.1.0, SVG Export Plug-In . SVG Version: 6.00 Build 0)  -->
<svg version="1.1" xmlns="http://www.w3.org/2000/svg" xmlns:xlink="http://www.w3.org/1999/xlink" x="0px" y="0px"
	 viewBox="0 0 1000 800" style="enable-background:new 0 0 1000 800;" xml:space="preserve">
<style type="text/css">
	.st0{fill:#626b77;}
	.st1{fill:#22243a;}
	.st2{fill:#626b77;stroke:#22243a;stroke-width:3;stroke-miterlimit:10;}
	.st3{fill:#626b77;stroke:#22243a;stroke-width:2;stroke-miterlimit:10;}
	.st4{fill:#626b77;stroke:#22243a;stroke-width:3;stroke-linecap:round;stroke-linejoin:round;stroke-miterlimit:10;}
	.st5{fill:#22243a;stroke:#22243a;stroke-width:2;stroke-linecap:round;stroke-linejoin:round;stroke-miterlimit:10;}
	.st6{fill:#FFFFFF;stroke:#22243a;stroke-width:5;stroke-miterlimit:10;}
	.st7{fill:none;stroke:#22243a;stroke-width:2;stroke-linecap:round;stroke-linejoin:round;stroke-miterlimit:10;}
	.st8{fill:#FFFFFF;stroke:#22243a;stroke-width:3;stroke-miterlimit:10;}
	.st9{opacity:0.4;clip-path:url(#XMLID_4_);fill:#FCF5EA;}
	.st10{fill:#FFFFFF;stroke:#22243a;stroke-width:2;stroke-miterlimit:10;}
	.st11{opacity:0.4;clip-path:url(#XMLID_5_);fill:#FCF5EA;}
	.st12{fill:#FFFFFF;}
	.st13{fill:#626b77;stroke:#22243a;stroke-linecap:round;stroke-linejoin:round;stroke-miterlimit:10;}
	.st14{fill:#FFFFFF;stroke:#22243a;stroke-miterlimit:10;}
	.st15{fill:#D9A228;}
	.st16{fill:#FCF5EA;stroke:#22243a;stroke-width:2;stroke-linecap:round;stroke-linejoin:round;stroke-miterlimit:10;}
	.st17{fill:#626b77;}
	.st18{fill:#FFFFFF;stroke:#22243a;stroke-linecap:round;stroke-linejoin:round;stroke-miterlimit:10;}
	.st19{display:none;fill:#626b77;stroke:#22243a;stroke-width:2;stroke-miterlimit:10;}
	.st20{font-family:'Muli-SemiBold';}
	.st21{font-size:23px;}
	.st22{display:none;opacity:0.1;}
	.st23{fill:#626b77;stroke:#22243a;stroke-width:3;stroke-miterlimit:10;}
	.st24{fill:none;stroke:#22243a;stroke-width:3;stroke-linecap:round;stroke-linejoin:round;stroke-miterlimit:10;}
	.st25{fill:#FCF5EA;stroke:#22243a;stroke-width:2;stroke-miterlimit:10;}
	.st26{fill:#FFFFFF;stroke:#22243a;stroke-width:2;stroke-linecap:round;stroke-linejoin:round;stroke-miterlimit:10;}
	.st27{fill:#FCF5EA;stroke:#22243a;stroke-linecap:round;stroke-linejoin:round;stroke-miterlimit:10;}
	.st28{fill:#FCF5EA;stroke:#22243a;stroke-width:3;stroke-linecap:round;stroke-linejoin:round;stroke-miterlimit:10;}
	.st29{fill:#22243a;stroke:#22243a;stroke-width:3;stroke-linecap:round;stroke-linejoin:round;stroke-miterlimit:10;}
	.st30{fill:#626b77;stroke:#22243a;stroke-width:5;stroke-miterlimit:10;}
	.st31{fill:#FCF5EA;stroke:#22243a;stroke-miterlimit:10;}
	.st32{fill:none;stroke:#22243a;stroke-miterlimit:10;}
	.st33{fill:none;stroke:#22243a;stroke-linecap:round;stroke-linejoin:round;stroke-miterlimit:10;}
	.st34{display:none;fill:none;stroke:#22243a;stroke-linecap:round;stroke-linejoin:round;stroke-miterlimit:10;}
	.st35{fill:none;stroke:#22243a;stroke-width:3;stroke-miterlimit:10;}
</style>
<g id="Line_Illustration">
	<g>
		<g id="pencil">
			<path class="st1" d="M204.2,435.5c1.3,0,2.4,1.3,2.4,2.8l0,15.7c0,1.5-1.1,2.8-2.4,2.8l-11.8,0c-1.3,0-2.4-1.3-2.4-2.8l0-15.7
				c0-1.5,1.1-2.8,2.4-2.8L204.2,435.5z"/>
			<polygon class="st2" points="170.3,455.2 119.8,455.2 108.8,446.1 120,436.9 170.3,437 193.2,437 193.2,455.3 			"/>
			<polygon class="st3" points="120.3,455.2 118.8,455.2 107.8,446.1 119,436.9 120.2,436.9 119,442.7 120.2,442.5 118.9,448.3
				120.3,448.3 			"/>
			<g>
				<polygon class="st1" points="111.4,449.1 111.4,443.1 106.8,446.1 				"/>
				<polygon class="st1" points="111.4,445 106.8,446.1 111.4,443.1 				"/>
			</g>
		</g>

			<g id="pen">
				<path class="st16" d="M833.3,626.5h-11.8c-1.7,0-3-1.4-3-3v-7.4c0-1.7,1.3-3,3-3h11.8c1.6,0,3,1.3,3,3v7.4
					C836.3,625.2,835,626.5,833.3,626.5z"/>
				<polygon class="st16" points="681.1,618.1 684.6,618.1 694.7,613.1 826.9,613.1 827.5,613.1 827.5,626.5 694.2,626.5
					684.5,621.6 681.1,621.3 				"/>
				<rect x="695.9" y="614.1" class="st17" width="123.7" height="11.3"/>
				<rect x="695.7" y="613.4" class="st1" width="69.1" height="12.3"/>
				<polygon class="st17" points="695.9,613.1 684.9,618.1 681.1,618.1 681.1,621.3 684.8,621.6 695.9,626.5 				"/>
				<rect x="701.3" y="617.4" class="st18" width="30.5" height="5.1"/>
				<rect x="704.1" y="619" class="st13" width="11" height="1.9"/>
				<rect x="819.5" y="614" class="st1" width="7.2" height="12"/>
			</g>
		<g id="Dairy">
			<path class="st4" d="M105.5,470.7v163.3c0,0,104.4,0,104.7,0c8.1,0,12.8-11.1,12.8-17.8c0-12.3,0-24.7,0-37c0-23.3,0-46.5,0-69.8
				c0-5.2,0.2-10.3,0.2-15.5c0-4.1,0.5-8.6-1.3-12.3c-2.7-5.4-7.7-11-14.1-11C207.7,470.7,105.5,470.7,105.5,470.7z"/>
			<line class="st24" x1="120.8" y1="471.3" x2="120.8" y2="633.7"/>
			<rect x="193.5" y="470.7" class="st25" width="14.2" height="163"/>
			<polygon class="st1" points="128.5,633.7 128.5,658.7 141,650.7 141,632.7 			"/>
		</g>
		<g id="coffee">
			<path class="st32" d="M607.8,365.6c-2,1.8-4.4,3.2-7,4.3c-12.9,5.2-27.6-1-32.8-13.9c-5.2-12.9,1-27.6,13.9-32.8
				c12.9-5.2,27.6,1,32.8,13.9c1.9,4.8,2.3,9.8,1.3,14.5"/>
			<path id="Handle" class="st10" d="M519,335.2h12.2c1.4,0,2.6-1.2,2.6-2.6v-8c0-1.4-1.2-2.6-2.6-2.6H519c-1.4,0-2.6,1.2-2.6,2.6v8
				C516.4,334,517.6,335.2,519,335.2z"/>
			<circle class="st1" cx="615.7" cy="356.8" r="2.2"/>
			<circle class="st1" cx="615.4" cy="363.4" r="1.4"/>
			<circle class="st8" cx="566.5" cy="334.1" r="34.8"/>
			<circle class="st3" cx="566.5" cy="334.1" r="27.8"/>
			<path class="st25" d="M555.5,309.4c-1.8,0.5-3.4,1.4-4.8,2.5c-5.7,4.1-10.6,10-12,17.1c-0.8,4.1-0.2,8.4,1.2,12.2
				c0.7,2,1.6,3.9,2.7,5.7c0.5,0.9,1.1,1.7,1.7,2.5c1.4,1.9,4.3-1.1,5.5-2c1.1-0.8,2.3-1.6,3.3-2.6c2.9-2.8,4.1-5.2,3.4-9.2
				c-0.5-3.3-4.3-6.5-2.3-9.9c1.6-3,5.4-4.1,8.4-5.1c1.4-0.4,2.8-1.1,3.2-2.7c0.6-3-1.8-6.7-4.3-8.1
				C559.6,309,557.5,308.9,555.5,309.4z"/>
		</g>
		<g id="pendrive">
			<polygon class="st3" points="520.6,425.9 590.9,425.9 590.9,459.4 521.1,459.4 515.8,455.5 515.8,430.7 			"/>
			<path class="st2" d="M640.3,442.6c0,8.6-7.1,15.6-15.9,15.6h-55c-8.8,0-15.9-7-15.9-15.6l0,0c0-8.6,7.1-15.6,15.9-15.6h55
				C633.2,427,640.3,434,640.3,442.6L640.3,442.6z"/>
			<polyline class="st2" points="589.9,427.1 655.2,427.1 655.2,458.2 589.9,458.2 			"/>
			<circle class="st1" cx="570.7" cy="442.3" r="11.7"/>
			<rect x="496.8" y="433.6" class="st25" width="19" height="19"/>
			<rect x="504.3" y="436.9" class="st14" width="3.8" height="4"/>
			<rect x="504.3" y="445.5" class="st14" width="3.8" height="4"/>
		</g>
	</g>
</g>
<g id="By_G.D.ANANTHA_KRISHNAN">
</g>
</svg>
