<?xml version="1.0" encoding="utf-8"?>
<!-- Generator: Adobe Illustrator 18.0.0, SVG Export Plug-In . SVG Version: 6.00 Build 0)  -->
<!DOCTYPE svg PUBLIC "-//W3C//DTD SVG 1.1//EN" "http://www.w3.org/Graphics/SVG/1.1/DTD/svg11.dtd" [
	<!ENTITY ns_extend "http://ns.adobe.com/Extensibility/1.0/">
	<!ENTITY ns_ai "http://ns.adobe.com/AdobeIllustrator/10.0/">
	<!ENTITY ns_graphs "http://ns.adobe.com/Graphs/1.0/">
	<!ENTITY ns_vars "http://ns.adobe.com/Variables/1.0/">
	<!ENTITY ns_imrep "http://ns.adobe.com/ImageReplacement/1.0/">
	<!ENTITY ns_sfw "http://ns.adobe.com/SaveForWeb/1.0/">
	<!ENTITY ns_custom "http://ns.adobe.com/GenericCustomNamespace/1.0/">
	<!ENTITY ns_adobe_xpath "http://ns.adobe.com/XPath/1.0/">
]>
<svg version="1.1" id="Layer_1" xmlns:x="&ns_extend;" xmlns:i="&ns_ai;" xmlns:graph="&ns_graphs;"
	 xmlns="http://www.w3.org/2000/svg" xmlns:xlink="http://www.w3.org/1999/xlink" x="0px" y="0px" viewBox="0 0 420 420"
	 enable-background="new 0 0 420 420" xml:space="preserve">
<metadata>
	<sfw  xmlns="&ns_sfw;">
		<slices></slices>
		<sliceSourceBounds  height="400" width="400" y="-409.7" x="10.7" bottomLeftOrigin="true"></sliceSourceBounds>
	</sfw>
</metadata>
<g>
	<circle fill="#F0546A" cx="210.7" cy="209.7" r="200"/>
	<path fill="#00A085" d="M315.6,243.1h-207c0-57.2,46.3-103.5,103.5-103.5C269.3,139.6,315.6,185.9,315.6,243.1z"/>
	<path fill="#00C3A6" d="M215.3,133.5v14h-37.1V141c2-0.3,3.6-2.1,3.6-4.2c0-1.3-0.6-2.5-1.5-3.3H215.3z"/>
	<path fill="#00C3A6" d="M207.6,133.5v14h37.1V141c-2-0.3-3.6-2.1-3.6-4.2c0-1.3,0.6-2.5,1.5-3.3H207.6z"/>
	<rect x="186.4" y="83.9" fill="#00C3A6" width="49.6" height="49.6"/>
	<circle fill="#00C3A6" cx="211.2" cy="84.8" r="24.8"/>
	<rect x="184.4" y="82.7" fill="#00C3A6" width="53.5" height="4.3"/>
	<rect x="209" y="58.3" fill="#00C3A6" width="4.5" height="4.1"/>
	<polygon fill="#4E4E55" points="210,58.3 211.2,27.8 211.2,58.3 	"/>
	<polygon fill="#4E4E55" points="212.3,58.3 211.2,27.8 211.2,58.3 	"/>
	<rect x="223.7" y="87.9" fill="#4E4E55" width="6.1" height="44.1"/>
	<rect x="209.3" y="87.9" fill="#4E4E55" width="6.1" height="44.1"/>
	<rect x="193.4" y="87.9" fill="#4E4E55" width="6.1" height="44.1"/>
	<path fill="none" stroke="#4E4E55" stroke-linecap="round" stroke-miterlimit="10" d="M118.7,236.9c0,0,1.9-62.3,54.6-83.6"/>
	<line fill="none" stroke="#4E4E55" stroke-linecap="round" stroke-miterlimit="10" x1="213.5" y1="153" x2="213.5" y2="236"/>
	<path fill="none" stroke="#4E4E55" stroke-linecap="round" stroke-miterlimit="10" d="M305,236.9c0,0-1.9-62.3-54.6-83.6"/>
	<path fill="none" stroke="#4E4E55" stroke-linecap="round" stroke-miterlimit="10" d="M276.2,236.9c0,0-1.4-62.3-40.2-83.6"/>
	<path fill="none" stroke="#4E4E55" stroke-linecap="round" stroke-miterlimit="10" d="M147.4,237.1c0,0,1.4-62.3,40.2-83.6"/>
	<path fill="none" stroke="#4E4E55" stroke-linecap="round" stroke-miterlimit="10" d="M176.8,237.1c0,0,0.8-62.3,24-83.6"/>
	<path fill="none" stroke="#4E4E55" stroke-linecap="round" stroke-miterlimit="10" d="M247,237.1c0,0-0.8-62.3-24-83.6"/>
	<rect x="103.2" y="243.1" fill="#E6EDEF" width="108.4" height="8.9"/>
	<rect x="211.2" y="243.1" fill="#E6EDEF" width="108.4" height="8.9"/>
	<rect x="98.6" y="248.5" fill="#E6EDEF" width="113" height="8.9"/>
	<rect x="211.2" y="248.5" fill="#E6EDEF" width="113.8" height="8.9"/>
	<rect x="103.2" y="324.1" fill="#E6EDEF" width="108.4" height="8.9"/>
	<rect x="211.2" y="324.1" fill="#E6EDEF" width="108.4" height="8.9"/>
	<rect x="108.7" y="248.8" fill="#E6EDEF" width="206.5" height="80.9"/>
	<rect x="115.7" y="257.4" fill="#4E4E55" width="27.4" height="67"/>
	<rect x="281.1" y="257.4" fill="#4E4E55" width="27.4" height="67"/>
	<rect x="220.4" y="257.4" fill="#4E4E55" width="37.9" height="67"/>
	<rect x="162.8" y="257.4" fill="#4E4E55" width="37.9" height="67"/>
</g>
</svg>
